<svg width="24" height="22" viewBox="0 0 24 22" fill="none" xmlns="http://www.w3.org/2000/svg">
<path d="M0.264375 11.6408L9.35507 20.7315C9.68163 21.1129 10.2555 21.1573 10.6368 20.8307C11.0182 20.5041 11.0626 19.9302 10.736 19.5489C10.7055 19.5134 10.6724 19.4802 10.6368 19.4498L3.10065 11.9044L23.091 11.9044C23.593 11.9044 24 11.4974 24 10.9953C24 10.4932 23.593 10.0863 23.091 10.0863L3.10065 10.0863L10.6368 2.55006C11.0182 2.22351 11.0626 1.64961 10.736 1.26829C10.4094 0.886969 9.83553 0.842517 9.45421 1.16915C9.41867 1.19962 9.38546 1.23274 9.35507 1.26829L0.264295 10.3591C-0.0881205 10.7135 -0.0881187 11.2862 0.264375 11.6408Z" fill="#FFFFFF"/>
</svg>
