<svg width="64" height="64" viewBox="0 0 64 64" fill="none" xmlns="http://www.w3.org/2000/svg">
<circle cx="32" cy="32" r="31.5" fill="white" stroke="#3ABDD5"/>
<g clip-path="url(#clip0_173_5924)">
<path d="M43.7356 31.3592L34.6449 22.2685C34.3184 21.8871 33.7445 21.8427 33.3632 22.1693C32.9818 22.4959 32.9374 23.0698 33.264 23.4511C33.2945 23.4866 33.3276 23.5198 33.3632 23.5502L40.8993 31.0956H20.909C20.407 31.0956 20 31.5026 20 32.0047C20 32.5068 20.407 32.9137 20.909 32.9137H40.8993L33.3632 40.4499C32.9818 40.7765 32.9374 41.3504 33.264 41.7317C33.5907 42.113 34.1645 42.1575 34.5458 41.8308C34.5813 41.8004 34.6145 41.7673 34.6449 41.7317L43.7357 32.6409C44.0881 32.2865 44.0881 31.7138 43.7356 31.3592Z" fill="#3ABDD5"/>
</g>
<defs>
<clipPath id="clip0_173_5924">
<rect width="24" height="24" fill="white" transform="translate(20 20)"/>
</clipPath>
</defs>
</svg>
