<svg width="32" height="32" viewBox="0 0 32 32" fill="none" xmlns="http://www.w3.org/2000/svg">
<path d="M16 32C24.8366 32 32 24.8366 32 16C32 7.16344 24.8366 0 16 0C7.16344 0 0 7.16344 0 16C0 24.8366 7.16344 32 16 32Z" fill="#4169E1"/>
<path d="M25.2218 22.2617C24.7564 22.3272 22.48 22.2617 22.3618 22.2617C21.7734 22.2692 21.2057 22.0445 20.7818 21.6362C20.3018 21.1744 19.8727 20.6653 19.4036 20.1817C19.2649 20.0349 19.1147 19.8993 18.9545 19.7762C18.58 19.4872 18.2091 19.5526 18.0327 19.9944C17.8949 20.4719 17.7988 20.9604 17.7454 21.4544C17.7145 21.9017 17.4309 22.1817 16.9291 22.2126C16.6182 22.229 16.3073 22.2344 16 22.2272C14.8802 22.22 13.778 21.9477 12.7836 21.4326C11.7077 20.8331 10.7704 20.0134 10.0327 19.0272C8.81999 17.4781 7.85089 15.7762 6.98544 14.0217C6.93998 13.9344 6.05271 12.0471 6.03089 11.9581C5.95089 11.6599 6.03089 11.3744 6.27635 11.2762C6.43271 11.2162 9.35635 11.2762 9.40544 11.2762C9.62279 11.2743 9.8351 11.3417 10.0116 11.4685C10.1881 11.5954 10.3197 11.7751 10.3873 11.9817C10.9277 13.3655 11.6677 14.6629 12.5836 15.8326C12.7118 15.989 12.8618 16.1262 13.0291 16.2399C13.2673 16.4017 13.4927 16.3453 13.5909 16.0708C13.7072 15.6899 13.7757 15.2959 13.7945 14.8981C13.8109 14.109 13.7945 13.589 13.7509 12.8017C13.7218 12.2962 13.5436 11.8526 12.7982 11.7108C12.5691 11.6708 12.5491 11.4817 12.6964 11.2926C13.0036 10.8999 13.4236 10.8381 13.8945 10.8144C14.5964 10.7744 15.2982 10.8017 16 10.8144H16.1527C16.4582 10.8133 16.7629 10.8444 17.0618 10.9071C17.2385 10.9429 17.399 11.0348 17.5192 11.1691C17.6394 11.3034 17.7131 11.473 17.7291 11.6526C17.765 11.8517 17.7802 12.054 17.7745 12.2562C17.7564 13.1181 17.7145 13.9781 17.7054 14.8399C17.6971 15.1811 17.7282 15.5222 17.7982 15.8562C17.8982 16.3144 18.2127 16.429 18.5254 16.0981C18.9304 15.6703 19.3018 15.2119 19.6364 14.7271C20.228 13.8436 20.716 12.8949 21.0909 11.8999C21.2945 11.389 21.4545 11.2762 22 11.2762H25.1018C25.2863 11.273 25.4701 11.2975 25.6473 11.349C25.71 11.3654 25.7686 11.3947 25.8195 11.4349C25.8703 11.475 25.9124 11.5253 25.9429 11.5825C25.9735 11.6397 25.9919 11.7025 25.997 11.7672C26.0021 11.8318 25.9939 11.8968 25.9727 11.9581C25.82 12.6381 25.4527 13.2181 25.0636 13.7762C24.4327 14.6708 23.7673 15.5417 23.1218 16.4217C23.0402 16.5384 22.9655 16.6598 22.8982 16.7853C22.6545 17.2235 22.6727 17.469 23.0255 17.8344C23.5891 18.4126 24.1909 18.9562 24.7345 19.5526C25.1337 19.9862 25.4939 20.454 25.8109 20.9508C26.2091 21.5672 25.9636 22.1562 25.2218 22.2617Z" fill="white"/>
</svg>
